<svg width="139" height="30" viewBox="0 0 139 30" fill="none" xmlns="http://www.w3.org/2000/svg">
<path d="M33.5852 29.5015C32.7822 29.5015 31.982 29.4017 31.1848 29.2021C30.3878 29.0027 29.5955 28.7104 28.808 28.3252C29.1819 25.8739 29.9781 23.5834 31.1966 21.4539C32.415 19.3242 33.9573 17.444 35.8233 15.8134C33.6078 17.0155 31.6875 18.5673 30.0622 20.4688C28.4369 22.3703 27.3161 24.5345 26.6998 26.9615C26.6012 26.8853 26.5103 26.8077 26.4271 26.7288C26.344 26.6498 26.2533 26.5609 26.1547 26.4618C25.175 25.4627 24.4247 24.3481 23.9038 23.118C23.3826 21.888 23.1221 20.6102 23.1221 19.2847C23.1221 17.8379 23.4064 16.4565 23.975 15.1405C24.5436 13.8245 25.3377 12.6556 26.3572 11.634C27.8457 10.1418 29.6829 9.10175 31.8689 8.51378C34.0552 7.92558 37.0722 7.70433 40.9199 7.85003C41.453 7.87258 41.9454 7.9893 42.3972 8.20017C42.8488 8.41082 43.2486 8.6906 43.5964 9.0395C43.9445 9.38818 44.2202 9.7902 44.4234 10.2456C44.6268 10.7009 44.7467 11.1957 44.7832 11.73C44.9094 15.5815 44.6818 18.5964 44.1004 20.7746C43.5187 22.9526 42.4905 24.7807 41.0158 26.2589C39.991 27.3033 38.8371 28.1049 37.5538 28.6635C36.2703 29.2222 34.9475 29.5015 33.5852 29.5015Z" fill="url(#paint0_linear_696_3774)"/>
<path d="M76.6534 7.73879C77.9215 7.73879 79.0455 7.93832 80.0254 8.33737C81.0341 8.70792 81.8843 9.23525 82.576 9.91934C83.2965 10.6034 83.8441 11.4301 84.2188 12.3992C84.5934 13.3683 84.7808 14.4657 84.7808 15.6914V21.549C84.7808 22.7461 84.5934 23.8435 84.2188 24.8412C83.8441 25.8103 83.2965 26.6512 82.576 27.3638C81.8843 28.0479 81.0341 28.5752 80.0254 28.9457C79.0455 29.3163 77.9215 29.5016 76.6534 29.5016H74.9242C73.6561 29.5016 72.5177 29.3163 71.509 28.9457C70.5291 28.5752 69.6789 28.0479 68.9584 27.3638C68.2667 26.6512 67.7335 25.8103 67.3589 24.8412C66.9842 23.8435 66.7969 22.7461 66.7969 21.549V15.6914V15.3493V0.384766H71.8981V8.29462C72.9644 7.92407 74.0884 7.73879 75.2701 7.73879H76.6534ZM74.9242 12.6557C74.002 12.6557 73.267 12.9408 72.7195 13.5108C72.2007 14.0809 71.9269 14.8078 71.8981 15.6914V21.3779C71.8981 22.3186 72.1719 23.0882 72.7195 23.6868C73.267 24.2853 74.002 24.5846 74.9242 24.5846H76.6534C77.5757 24.5846 78.325 24.2853 78.9014 23.6868C79.4778 23.0882 79.766 22.3186 79.766 21.3779V15.8197C79.766 14.879 79.4778 14.1237 78.9014 13.5536C78.325 12.955 77.5757 12.6557 76.6534 12.6557H74.9242Z" fill="#24262D"/>
<path d="M54.4844 12.6656C53.7492 12.6656 53.1412 12.7651 52.6605 12.964C52.2081 13.1345 51.8547 13.376 51.6002 13.6885C51.3457 14.0011 51.1619 14.3847 51.0488 14.8394C50.9639 15.2656 50.9215 15.7344 50.9215 16.2459V29.5015H45.959V7.80664H50.9215V8.36073C51.9112 7.99134 52.9716 7.80664 54.1026 7.80664H56.3082C57.5524 7.80664 58.6552 8.01975 59.6166 8.44598C60.578 8.8722 61.3697 9.4405 61.9918 10.1509C62.6422 10.8328 63.1229 11.6285 63.4339 12.5377C63.7732 13.4186 63.9429 14.3137 63.9429 15.223V29.5015H58.9804V16.2459C58.9804 15.7344 58.9379 15.2656 58.8531 14.8394C58.7683 14.3847 58.5986 14.0011 58.3441 13.6885C58.1179 13.376 57.7786 13.1345 57.3262 12.964C56.8737 12.7651 56.2658 12.6656 55.5023 12.6656H54.4844Z" fill="#24262D"/>
<path d="M97.3359 7.80664C98.5838 7.80664 99.69 8.00555 100.654 8.40335C101.647 8.77275 102.484 9.29843 103.164 9.98039C103.874 10.6623 104.412 11.4864 104.781 12.4525C105.15 13.4186 105.334 14.5126 105.334 15.7344V21.5737C105.334 22.7672 105.15 23.8611 104.781 24.8557C104.412 25.8218 103.874 26.66 103.164 27.3704C102.484 28.0523 101.647 28.578 100.654 28.9474C99.69 29.3168 98.5838 29.5015 97.3359 29.5015H95.5915C94.3719 29.5015 93.2658 29.3168 92.2731 28.9474C91.2804 28.578 90.4295 28.0523 89.7204 27.3704C89.0397 26.66 88.515 25.8218 88.1463 24.8557C87.8059 23.8611 87.6357 22.7672 87.6357 21.5737V15.7344C87.6357 14.5126 87.8059 13.4186 88.1463 12.4525C88.515 11.4864 89.0397 10.6623 89.7204 9.98039C90.4295 9.29843 91.2804 8.77275 92.2731 8.40335C93.2658 8.00555 94.3719 7.80664 95.5915 7.80664H97.3359ZM95.5915 12.7082C94.7123 12.7082 93.9607 13.0066 93.3367 13.6033C92.7411 14.1716 92.4433 14.9246 92.4433 15.8623V21.4032C92.4433 22.3409 92.7411 23.1081 93.3367 23.7048C93.9607 24.3016 94.7123 24.5999 95.5915 24.5999H97.3359C98.2435 24.5999 98.9809 24.3016 99.5482 23.7048C100.144 23.1081 100.442 22.3409 100.442 21.4032V15.8623C100.442 14.9246 100.144 14.1716 99.5482 13.6033C98.9809 13.0066 98.2435 12.7082 97.3359 12.7082H95.5915Z" fill="#24262D"/>
<path d="M10.6988 21.3779H10.996C11.7602 17.8719 12.5244 14.3802 13.2886 10.9027C14.0811 7.39674 14.8595 3.89075 15.6237 0.384766H21.6949V29.4588H17.5342V10.5607H17.2795C16.6002 13.7246 15.8926 16.8886 15.1567 20.0525C14.4208 23.1879 13.7273 26.3234 13.0764 29.4588L8.44869 29.5016L4.50031 10.6034H4.20312V29.4588H0V0.384766H6.07117L10.6988 21.3779Z" fill="#24262D"/>
<path d="M134.986 28.1951V23.2217H136.926C137.362 23.2217 137.734 23.2904 138.041 23.4277C138.349 23.5651 138.586 23.764 138.752 24.0245C138.918 24.285 139.001 24.5953 139.001 24.9553C139.001 25.3152 138.918 25.6255 138.752 25.886C138.586 26.1418 138.349 26.3407 138.041 26.4828C137.734 26.6202 137.362 26.6888 136.926 26.6888H135.377L135.697 26.3549V28.1951H134.986ZM135.697 26.426L135.377 26.0707H136.905C137.359 26.0707 137.703 25.9736 137.935 25.7794C138.172 25.5852 138.29 25.3105 138.29 24.9553C138.29 24.6 138.172 24.3253 137.935 24.1311C137.703 23.9369 137.359 23.8398 136.905 23.8398H135.377L135.697 23.4846V26.426Z" fill="black"/>
<path d="M129.116 28.1951V23.2217H131.212C131.743 23.2217 132.209 23.3259 132.612 23.5343C133.019 23.7427 133.334 24.034 133.557 24.4082C133.784 24.7824 133.898 25.2158 133.898 25.7084C133.898 26.201 133.784 26.6344 133.557 27.0086C133.334 27.3828 133.019 27.6741 132.612 27.8825C132.209 28.0909 131.743 28.1951 131.212 28.1951H129.116ZM129.827 27.577H131.17C131.582 27.577 131.937 27.4988 132.235 27.3425C132.538 27.1862 132.773 26.9683 132.939 26.6888C133.104 26.4047 133.187 26.0778 133.187 25.7084C133.187 25.3342 133.104 25.0074 132.939 24.7279C132.773 24.4485 132.538 24.2306 132.235 24.0743C131.937 23.918 131.582 23.8398 131.17 23.8398H129.827V27.577Z" fill="black"/>
<path d="M123.351 28.1951V23.2217H123.933L127.223 27.307H126.917V23.2217H127.628V28.1951H127.045L123.756 24.1098H124.061V28.1951H123.351Z" fill="black"/>
<path d="M119.792 28.2519C119.138 28.2519 118.624 28.0648 118.25 27.6906C117.876 27.3164 117.688 26.7694 117.688 26.0494V23.2217H118.399V26.021C118.399 26.5752 118.52 26.9801 118.761 27.2359C119.008 27.4917 119.353 27.6196 119.799 27.6196C120.249 27.6196 120.594 27.4917 120.836 27.2359C121.082 26.9801 121.205 26.5752 121.205 26.021V23.2217H121.895V26.0494C121.895 26.7694 121.707 27.3164 121.333 27.6906C120.964 28.0648 120.45 28.2519 119.792 28.2519Z" fill="black"/>
<path d="M111.917 29.6162C111.737 29.6162 111.562 29.5854 111.392 29.5239C111.221 29.467 111.074 29.3818 110.951 29.2681L111.242 28.7565C111.337 28.8465 111.441 28.9152 111.555 28.9626C111.669 29.01 111.79 29.0336 111.917 29.0336C112.083 29.0336 112.221 28.991 112.33 28.9057C112.438 28.8205 112.54 28.6689 112.635 28.451L112.869 27.9324L112.941 27.8471L114.418 24.4297H115.086L113.26 28.5718C113.151 28.8371 113.028 29.0455 112.891 29.197C112.758 29.3486 112.611 29.4552 112.45 29.5168C112.289 29.5831 112.112 29.6162 111.917 29.6162ZM112.813 28.316L111.093 24.4297H111.804L113.267 27.7832L112.813 28.316Z" fill="black"/>
<path d="M106.477 28.1951V23.2217H108.707C109.281 23.2217 109.721 23.3377 110.029 23.5698C110.337 23.7972 110.491 24.1098 110.491 24.5077C110.491 24.7776 110.429 25.005 110.306 25.1897C110.188 25.3745 110.027 25.5165 109.823 25.616C109.619 25.7155 109.399 25.7652 109.162 25.7652L109.29 25.5521C109.574 25.5521 109.825 25.6018 110.043 25.7013C110.261 25.8007 110.434 25.9476 110.562 26.1418C110.69 26.3312 110.754 26.5681 110.754 26.8523C110.754 27.2786 110.593 27.6101 110.271 27.8469C109.953 28.079 109.48 28.1951 108.85 28.1951H106.477ZM107.187 27.6196H108.821C109.214 27.6196 109.515 27.5533 109.723 27.4206C109.932 27.288 110.036 27.0796 110.036 26.7954C110.036 26.5065 109.932 26.2957 109.723 26.1631C109.515 26.0305 109.214 25.9642 108.821 25.9642H107.123V25.3887H108.644C109.004 25.3887 109.283 25.3223 109.482 25.1897C109.681 25.0571 109.78 24.8582 109.78 24.5929C109.78 24.3277 109.681 24.1287 109.482 23.9961C109.283 23.8635 109.004 23.7972 108.644 23.7972H107.187V27.6196Z" fill="black"/>
<defs>
<linearGradient id="paint0_linear_696_3774" x1="28.6885" y1="29.5015" x2="44.8169" y2="7.80664" gradientUnits="userSpaceOnUse">
<stop stop-color="#0B97DC"/>
<stop offset="1" stop-color="#5DBB47"/>
</linearGradient>
</defs>
</svg>
