<svg width="83" height="83" viewBox="0 0 83 83" fill="none" xmlns="http://www.w3.org/2000/svg">
<rect width="83" height="83" />
<rect x="9" y="8" width="64" height="58" rx="29" fill="#4364C2" fill-opacity="0.15"/>
<path fill-rule="evenodd" clip-rule="evenodd" d="M45.7425 36.7376C48.1459 33.5707 48.9545 29.4758 47.9365 25.6377C46.9184 21.7964 44.1864 18.6392 40.5265 17.0686C40.2462 16.9497 40.0755 16.6639 40.1013 16.362C40.0819 10.934 35.7165 6.51429 30.2751 6.41151C24.8401 6.47575 20.4777 10.9015 20.5066 16.32C20.5066 16.6027 20.3391 16.8596 20.0781 16.972C18.3191 17.7268 16.763 18.8894 15.5419 20.3604C14.2693 21.9021 13.3479 23.7039 12.8486 25.6374C12.3524 27.5484 12.3009 29.5462 12.7004 31.4797C13.0966 33.4421 13.9279 35.292 15.136 36.8883C15.3454 37.1677 15.3228 37.5531 15.0844 37.8037C11.3408 41.9115 11.5631 48.2417 15.5838 52.0798C17.5555 53.9522 20.178 54.9929 22.9003 54.9865C25.4841 54.9961 27.9745 54.0293 29.8689 52.2757V45.592C28.287 44.7859 26.8147 43.7806 25.4874 42.6051C24.0118 41.3139 22.7199 39.8301 21.6438 38.1953C21.5407 38.0379 21.5053 37.8484 21.5439 37.6653C21.5826 37.4823 21.6954 37.3217 21.85 37.2189C22.1786 37.0069 22.62 37.1001 22.8326 37.4277C23.8378 38.9533 25.0492 40.3408 26.4249 41.5484C27.4816 42.483 28.6382 43.302 29.8689 43.9926V26.0584C29.8818 25.6762 30.1975 25.3743 30.5809 25.3743C30.9643 25.3743 31.28 25.6762 31.2929 26.0584V38.9664C32.5397 38.2309 33.6802 37.3283 34.6854 36.2845C35.9902 34.9228 37.0598 33.3586 37.8556 31.6532C37.9329 31.4797 38.0779 31.3416 38.2551 31.2774C38.4355 31.2099 38.6353 31.2196 38.806 31.2999C38.98 31.3802 39.1121 31.5279 39.1733 31.7078C39.2377 31.8876 39.2248 32.0868 39.1379 32.257C38.2776 34.1006 37.1179 35.7932 35.71 37.2641C34.4213 38.6002 32.9329 39.7211 31.293 40.5915V52.276C33.123 54.0104 35.5489 54.9772 38.0747 54.9836C40.7359 54.9707 43.2907 53.9302 45.198 52.0802C47.1568 50.198 48.3069 47.6351 48.4068 44.9244C48.526 42.249 47.5852 39.6314 45.7843 37.64C45.5523 37.3895 45.5363 37.0074 45.7425 36.7376ZM31.296 54.1233V78.2891C31.2831 78.6712 30.9674 78.9764 30.584 78.9764C30.2006 78.9764 29.8849 78.6713 29.872 78.2891V54.1176C27.8552 55.6046 25.4098 56.4043 22.9002 56.3979C19.8105 56.4075 16.8369 55.2256 14.6014 53.0994C10.1876 48.8824 9.77848 41.9831 13.6639 37.2784C12.5138 35.6147 11.7116 33.739 11.312 31.7573C10.8707 29.6151 10.9254 27.3957 11.4796 25.276C12.0337 23.1433 13.0517 21.1585 14.4597 19.4627C15.7258 17.9371 17.3077 16.7102 19.099 15.8623C19.3148 9.84984 24.228 5.07071 30.2588 5H30.2814C36.3479 5.10599 41.2738 9.91405 41.5088 15.9552C44.708 17.4551 47.2467 20.0759 48.632 23.3166C49.2893 22.2696 50.156 21.367 51.1772 20.6733C52.5722 19.7323 54.212 19.2216 55.8938 19.2088H55.9164C60.6813 19.2602 64.5797 23.0083 64.799 27.7557C66.3197 28.4976 67.6696 29.5383 68.7746 30.8134C69.986 32.1816 70.8688 33.8067 71.3552 35.5635C72.2219 38.83 71.6226 42.3115 69.7154 45.1029C71.2167 46.9336 72.0221 49.2332 71.9995 51.5971C71.977 54.1087 70.9396 56.5014 69.1225 58.2358C67.328 60.0055 64.9279 61.0332 62.4085 61.1136C60.5109 61.1521 58.6519 60.5804 57.1055 59.4787V78.2902C57.1055 78.682 56.7866 79 56.3967 79C56.0037 79 55.6847 78.682 55.6847 78.2902V59.4401C54.8535 59.9733 53.9418 60.3715 52.985 60.6156C51.3741 61.0235 49.6988 61.091 48.0654 60.818C45.1401 60.3362 42.5949 58.5569 41.142 55.9842C40.1433 56.2605 39.1123 56.3986 38.0781 56.3986C35.6296 56.3986 33.2487 55.5988 31.2964 54.1246L31.296 54.1233ZM59.8632 56.2752C62.2892 56.59 64.7119 55.6971 66.3518 53.8889C67.9917 52.0839 68.636 49.5883 68.0819 47.2148C67.9885 46.8358 67.6083 46.6014 67.2281 46.6913C66.8479 46.778 66.6095 47.157 66.6965 47.536C67.1476 49.4566 66.6256 51.4768 65.2983 52.9414C63.9741 54.4059 62.0089 55.1286 60.0469 54.8749C59.8568 54.8364 59.657 54.8813 59.496 54.9937C59.3381 55.1094 59.235 55.2828 59.2092 55.4755C59.1834 55.6682 59.2382 55.8641 59.3639 56.0151C59.4863 56.166 59.6667 56.2592 59.8632 56.272L59.8632 56.2752ZM49.8176 45.1655C49.8176 45.1044 49.8241 45.0434 49.8273 44.9856H49.8241C49.9529 42.1335 49.0219 39.3361 47.2144 37.1232C49.6211 33.6705 50.3847 29.3411 49.3086 25.275L49.2699 25.1337V25.1273C49.8402 23.8008 50.7777 22.6607 51.9697 21.8384C53.1328 21.0548 54.5052 20.6308 55.9098 20.6211C60.0497 20.6725 63.3842 24.0288 63.3939 28.1592C63.3681 28.4611 63.5389 28.747 63.8192 28.8658C65.314 29.5242 66.6382 30.507 67.7045 31.7436C68.7709 32.9479 69.5506 34.3772 69.9823 35.9253C70.7877 38.9668 70.1466 42.2075 68.2457 44.7156C68.0395 44.9886 68.0556 45.3676 68.2876 45.6213C69.7825 47.2465 70.604 49.3791 70.5814 51.5856C70.5621 53.715 69.6826 55.7481 68.1394 57.2223C66.6026 58.7415 64.5471 59.6279 62.3854 59.705C60.4266 59.7403 58.5322 59.0048 57.1082 57.6623V47.8631C58.4001 47.1693 59.5729 46.2765 60.5877 45.2198C61.725 44.0219 62.6593 42.6472 63.3552 41.1505C63.5227 40.7972 63.3713 40.3765 63.0169 40.2095C62.6625 40.0425 62.2405 40.1934 62.073 40.5467C61.4415 41.9085 60.5942 43.1579 59.5632 44.2467C58.8319 45.0111 58.0039 45.676 57.105 46.2316V36.0436C57.105 35.6517 56.7861 35.337 56.393 35.337C56 35.337 55.681 35.6517 55.681 36.0436V50.5417C54.6823 49.97 53.7415 49.3083 52.8684 48.5633C51.7473 47.6222 50.7614 46.5302 49.9463 45.3162C49.9076 45.2584 49.8658 45.2102 49.8142 45.1652L49.8176 45.1655ZM55.6844 52.1479V57.6561C54.8049 58.4205 53.7546 58.9632 52.6238 59.2427C51.2062 59.5992 49.7307 59.6602 48.2906 59.4161C45.8839 59.0211 43.7705 57.5886 42.5108 55.5042C43.8736 54.9357 45.1172 54.1199 46.1836 53.0985C47.8621 51.4895 49.0283 49.4242 49.5374 47.1599C50.2623 48.0593 51.0677 48.8911 51.9505 49.6362C53.0942 50.6158 54.3474 51.4573 55.6844 52.1479ZM20.8993 20.6118C21.2666 20.4705 21.6757 20.6471 21.8207 21.0101C21.9657 21.373 21.7885 21.7841 21.4212 21.9287C17.7194 23.3997 15.7961 27.4786 17.0204 31.2624C17.0848 31.4423 17.0719 31.6382 16.9849 31.8084C16.9012 31.9819 16.7497 32.1103 16.5693 32.1682C16.3857 32.226 16.1892 32.2099 16.0184 32.12C15.8509 32.03 15.7252 31.8759 15.6705 31.6928C14.2175 27.2028 16.5049 22.359 20.8993 20.6118ZM35.0101 51.2681C34.8136 51.2553 34.6332 51.1621 34.5075 51.0112C34.3851 50.8602 34.3271 50.6675 34.3529 50.4716C34.3787 50.2789 34.485 50.1054 34.6428 49.9898C34.8007 49.8774 35.0005 49.8356 35.1938 49.871C37.6584 50.1922 40.123 49.2864 41.7886 47.4493C43.4542 45.6121 44.1115 43.0749 43.5412 40.6628C43.4543 40.2838 43.6927 39.9048 44.0728 39.815C44.453 39.7282 44.8332 39.9627 44.9233 40.3417C45.5999 43.2066 44.8202 46.216 42.8421 48.4001C40.864 50.584 37.9355 51.6568 35.0101 51.2778L35.0101 51.2681Z" fill="#4364C2"/>
</svg>
