<svg width="83" height="83" viewBox="0 0 83 83" fill="none" xmlns="http://www.w3.org/2000/svg">
<rect width="83" height="83"/>
<rect x="7" y="7" width="40" height="40" rx="9" fill="#EC7431" fill-opacity="0.15"/>
<path d="M3.75 4C3.75 3.86193 3.86193 3.75 4 3.75H50.125C50.2631 3.75 50.375 3.86193 50.375 4V32.3187C50.375 32.4568 50.2631 32.5687 50.125 32.5687H34.3187C33.3522 32.5687 32.5687 33.3523 32.5687 34.3187V50.125C32.5687 50.2631 32.4568 50.375 32.3187 50.375H4C3.86193 50.375 3.75 50.2631 3.75 50.125V4Z" stroke="#DA6323" stroke-width="1.5" stroke-linejoin="round"/>
<mask id="path-3-inside-1_643_7859" fill="white">
<rect x="31.875" y="31.875" width="48.125" height="48.125" rx="1"/>
</mask>
<rect x="31.875" y="31.875" width="48.125" height="48.125" rx="1" stroke="#DA6323" stroke-width="3" stroke-linejoin="round" stroke-dasharray="3 3" mask="url(#path-3-inside-1_643_7859)"/>
</svg>
