<svg width="83" height="83" viewBox="0 0 83 83" fill="none" xmlns="http://www.w3.org/2000/svg">
<rect width="83" height="83" />
<rect x="14" y="15" width="33" height="55" rx="9" fill="#7E13A5" fill-opacity="0.15"/>
<path d="M24.7097 73H58.2931H58.2901C61.4429 72.997 63.997 70.4157 64 67.2293V29.9188C64.0059 27.8234 63.2273 25.8054 61.8234 24.2674L52.1795 13.7095C51.2711 12.7109 50.1298 11.9538 48.8615 11.5097C47.9856 11.1818 47.0595 11.0089 46.1246 11H24.7099C21.5571 11.003 19.003 13.5843 19 16.7707V67.2052C18.9941 68.7403 19.5958 70.2128 20.6664 71.2978C21.737 72.3858 23.1908 72.997 24.7097 73ZM60.9507 25.0783C61.2929 25.4509 61.5937 25.8592 61.8473 26.3004H51.0649C50.0414 26.2974 49.2157 25.4598 49.2157 24.4256V12.9467C50.0061 13.3401 50.7198 13.8797 51.3155 14.5383L60.9507 25.0783ZM20.1795 16.7951C20.1825 14.2675 22.2087 12.2197 24.7097 12.2167H46.1244C46.7703 12.2197 47.4132 12.3151 48.0355 12.4939V24.4169C48.0355 26.11 49.3892 27.4811 51.0644 27.4871H62.3958C62.6701 28.2501 62.8146 29.0579 62.8205 29.8717V67.2057C62.8175 69.7334 60.7914 71.7812 58.2903 71.7842H24.7092C22.2082 71.7812 20.182 69.7334 20.1791 67.2057L20.1795 16.7951ZM26.4704 39.9254H32.5489C33.7169 39.9224 34.6606 38.9656 34.6665 37.7882V31.6657C34.6606 30.4883 33.7139 29.5375 32.5489 29.5375H26.4792C25.3142 29.5375 24.3704 30.4913 24.3704 31.6657V37.7882C24.3704 38.9656 25.3142 39.9224 26.4792 39.9254H26.4704ZM25.5502 31.6659C25.5502 31.4185 25.6475 31.18 25.8215 31.0042C25.9955 30.8283 26.2315 30.7299 26.4792 30.7299H32.5577C32.8055 30.7269 33.0444 30.8253 33.2184 31.0012C33.3953 31.177 33.4927 31.4155 33.4927 31.6659V37.7883C33.4927 38.3099 33.0739 38.7332 32.5577 38.7332H26.4792C25.9631 38.7302 25.5501 38.307 25.5501 37.7883L25.5502 31.6659ZM38.3531 31.2933H47.5168C47.8412 31.2933 48.1066 31.5616 48.1066 31.8894C48.1066 32.2173 47.8412 32.4856 47.5168 32.4856H38.3531C38.0287 32.4856 37.7632 32.2173 37.7632 31.8894C37.7632 31.5616 38.0287 31.2933 38.3531 31.2933ZM38.3531 34.122H56.2078C56.5323 34.122 56.7977 34.3903 56.7977 34.7182C56.7977 35.049 56.5323 35.3143 56.2078 35.3143H38.3531C38.0287 35.3143 37.7632 35.049 37.7632 34.7182C37.7632 34.3903 38.0287 34.122 38.3531 34.122ZM56.7801 37.5499C56.7801 37.8778 56.5177 38.146 56.1903 38.146H38.3529C38.0285 38.146 37.763 37.8778 37.763 37.5499C37.763 37.219 38.0285 36.9537 38.3529 36.9537H56.2077C56.361 36.9537 56.5085 37.0193 56.6147 37.1296C56.7238 37.2429 56.7831 37.3919 56.7801 37.5499ZM26.4788 53.199H32.5574C33.7224 53.199 34.6691 52.2481 34.672 51.0707V44.9244C34.6632 43.7499 33.7224 42.7991 32.5574 42.7961H26.4788C25.3138 42.7991 24.3701 43.7559 24.3701 44.9333V51.0766C24.373 52.2511 25.3168 53.199 26.4788 53.199ZM25.5498 44.9242C25.5498 44.4056 25.9627 43.9823 26.4788 43.9793H32.5574C33.0735 43.9793 33.4923 44.4026 33.4923 44.9242V51.0705C33.4923 51.3209 33.395 51.5594 33.218 51.7352C33.044 51.9111 32.8051 52.0095 32.5574 52.0065H26.4789C25.9657 52.0065 25.5498 51.5862 25.5498 51.0705L25.5498 44.9242ZM37.7479 45.1806C37.745 45.0196 37.8069 44.8676 37.919 44.7543C38.0281 44.644 38.1815 44.5814 38.3378 44.5844H47.5158C47.8403 44.5844 48.1057 44.8497 48.1057 45.1806C48.1057 45.5084 47.8403 45.7767 47.5158 45.7767H38.3521C38.1929 45.7797 38.0395 45.7201 37.9245 45.6068C37.8124 45.4935 37.7479 45.3415 37.7479 45.1806ZM56.7798 48.0033V48.0003C56.7827 48.1613 56.7208 48.3133 56.6117 48.4266C56.4996 48.5369 56.3492 48.5995 56.1899 48.5965H38.3525C38.0281 48.5965 37.7627 48.3312 37.7627 48.0003C37.7627 47.6724 38.0281 47.4042 38.3525 47.4042H56.2073C56.5229 47.4131 56.7765 47.6724 56.7794 47.9944L56.7798 48.0033ZM56.7798 50.832C56.7827 50.99 56.7208 51.142 56.6117 51.2553C56.4996 51.3686 56.3492 51.4282 56.1899 51.4282H38.3525C38.0281 51.4282 37.7627 51.1599 37.7627 50.832C37.7627 50.5012 38.0281 50.2359 38.3525 50.2359H56.2073C56.5229 50.2448 56.7765 50.5041 56.7794 50.8231L56.7798 50.832ZM26.4785 66.8955H32.557C33.7249 66.8925 34.6687 65.9357 34.6717 64.7583V58.6119C34.6687 57.4345 33.722 56.4836 32.557 56.4836H26.4785C25.3135 56.4836 24.3697 57.4375 24.3697 58.6119V64.7583C24.3697 65.9357 25.3135 66.8925 26.4785 66.8955ZM25.5494 58.6123C25.5494 58.3649 25.6467 58.1264 25.8208 57.9506C25.9948 57.7747 26.2307 57.6763 26.4784 57.6763H32.557C32.8047 57.6734 33.0436 57.7717 33.2176 57.9476C33.3946 58.1235 33.4919 58.3619 33.4919 58.6123V64.7586C33.4919 65.2803 33.0731 65.7035 32.557 65.7035H26.4784C26.2307 65.7035 25.9918 65.6022 25.8178 65.4263C25.6438 65.2475 25.5464 65.009 25.5494 64.7586L25.5494 58.6123ZM37.7476 58.8597C37.7476 58.5318 38.013 58.2636 38.3374 58.2636H47.5155C47.8399 58.2636 48.1053 58.5318 48.1053 58.8597C48.1053 59.1876 47.8399 59.4559 47.5155 59.4559H38.3518C38.1925 59.4588 38.0391 59.3992 37.9241 59.286C37.812 59.1757 37.7476 59.0207 37.7476 58.8597ZM56.7794 61.6884C56.7794 62.0193 56.5169 62.2846 56.1895 62.2846H38.3521C38.0218 62.2846 37.7564 62.0163 37.7564 61.6825C37.7564 61.3486 38.0218 61.0774 38.3521 61.0774H56.2069C56.3632 61.0804 56.5136 61.1459 56.6198 61.2622C56.7289 61.3755 56.7853 61.5304 56.7794 61.6884ZM56.7794 64.5201C56.7794 64.848 56.5169 65.1163 56.1895 65.1163H38.3521C38.0277 65.1163 37.7623 64.848 37.7623 64.5201C37.7623 64.1893 38.0277 63.924 38.3521 63.924H56.2069C56.3603 63.924 56.5077 63.9895 56.6139 64.0998C56.723 64.2131 56.7823 64.3621 56.7794 64.5201ZM26.1066 24.7748H40.8945C41.8678 24.7748 42.6552 23.9789 42.6552 22.9953V19.1412C42.6522 18.1665 41.8796 17.3766 40.918 17.3587H26.1302C25.1569 17.3587 24.3695 18.1576 24.3695 19.1412V22.9953C24.3695 23.979 25.157 24.7748 26.1302 24.7748H26.1066ZM25.5256 19.1382V19.1412C25.5256 18.8163 25.7851 18.551 26.1066 18.551H40.8945C41.0478 18.551 41.1953 18.6136 41.3044 18.7239C41.4136 18.8342 41.4755 18.9832 41.4755 19.1412V22.9953C41.4755 23.1503 41.4136 23.3023 41.3044 23.4126C41.1953 23.5229 41.0479 23.5825 40.8945 23.5825H26.13C25.8086 23.5825 25.549 23.3202 25.549 22.9953L25.5256 19.1382Z" fill="#7E13A5"/>
</svg>
