<svg width="83" height="83" viewBox="0 0 83 83" fill="none" xmlns="http://www.w3.org/2000/svg">
<rect width="83" height="83" />
<rect x="27" y="28" width="50" height="39" rx="9" fill="#1BA24E" fill-opacity="0.15"/>
<path d="M47.4902 8H14.0745C13.6116 8 13.237 8.37459 13.237 8.83752V14.3419L9.05917 21.415C8.36642 22.7057 8 24.1403 8 25.5634V68.461C8 68.9239 8.37459 69.2985 8.83752 69.2985H29.4369V74.1625C29.4369 74.6254 29.8115 75 30.2744 75H74.1641C74.627 75 75.0016 74.6254 75.0016 74.1625V31.2944C75.0016 29.8712 74.6352 28.4375 73.9253 27.1182L69.7647 20.0803V14.5799C69.7647 14.117 69.3901 13.7424 68.9272 13.7424H48.3278V8.83752C48.3278 8.37459 47.9532 8 47.4902 8ZM29.4369 31.2944V67.6234H9.67504V25.5634C9.67504 24.3987 9.96457 23.27 10.5183 22.237L14.5474 15.4175H17.0091C17.472 15.4175 17.8466 15.0429 17.8466 14.5799C17.8466 14.117 17.472 13.7424 17.0091 13.7424H14.912V9.67504H46.6527V13.7424H35.5114C35.0485 13.7424 34.6739 14.117 34.6739 14.5799V20.0803L30.4961 27.1476C29.8033 28.4375 29.4369 29.8712 29.4369 31.2944ZM73.3266 73.325H31.112V61.0288H40.2822C43.5578 64.0133 47.783 65.6531 52.2193 65.6531C56.6555 65.6531 60.8807 64.0133 64.1564 61.0288H73.3266V73.325ZM73.3266 59.3537H63.8276C63.6133 59.3537 63.4072 59.4355 63.2518 59.5828C60.2559 62.4176 56.3374 63.9781 52.2193 63.9781C48.1012 63.9781 44.1827 62.4176 41.1867 59.5828C41.0313 59.4355 40.8252 59.3537 40.611 59.3537H31.112V35.6447H40.611C40.8252 35.6447 41.0313 35.5629 41.1867 35.4157C44.1835 32.5809 48.1012 31.0195 52.2193 31.0195C56.3374 31.0195 60.2551 32.5809 63.2518 35.4157C63.4072 35.5629 63.6133 35.6447 63.8276 35.6447H73.3266V59.3537ZM68.0896 15.4175V19.4439H65.9926C65.5296 19.4439 65.155 19.8185 65.155 20.2815C65.155 20.7444 65.5296 21.119 65.9926 21.119H68.4334L72.467 27.941C73.0371 29.0026 73.3266 30.1313 73.3266 31.2944V33.9697H64.1564C60.8807 30.9844 56.6547 29.3445 52.2193 29.3445C47.7839 29.3445 43.5578 30.9844 40.2822 33.9697H31.112V31.2944C31.112 30.1313 31.4015 29.0026 31.9544 27.9704L36.0052 21.119H38.4468C38.9097 21.119 39.2843 20.7444 39.2843 20.2815C39.2843 19.8185 38.9097 19.4439 38.4468 19.4439H36.3489V15.4175H68.0896Z" fill="#1BA24E"/>
<path d="M24.5757 13.7422H21.8571C21.3941 13.7422 21.0195 14.1168 21.0195 14.5797C21.0195 15.0426 21.3941 15.4172 21.8571 15.4172H24.5757C25.0386 15.4172 25.4132 15.0426 25.4132 14.5797C25.4132 14.1168 25.0386 13.7422 24.5757 13.7422Z" fill="#1BA24E"/>
<path d="M32.1421 13.7422H29.4235C28.9605 13.7422 28.5859 14.1168 28.5859 14.5797C28.5859 15.0426 28.9605 15.4172 29.4235 15.4172H32.1421C32.6051 15.4172 32.9796 15.0426 32.9796 14.5797C32.9796 14.1168 32.6051 13.7422 32.1421 13.7422Z" fill="#1BA24E"/>
<path d="M43.2936 21.1194H46.0131C46.476 21.1194 46.8506 20.7448 46.8506 20.2819C46.8506 19.8189 46.476 19.4443 46.0131 19.4443H43.2936C42.8306 19.4443 42.4561 19.8189 42.4561 20.2819C42.4561 20.7448 42.8306 21.1194 43.2936 21.1194Z" fill="#1BA24E"/>
<path d="M50.86 21.1194H53.5787C54.0416 21.1194 54.4162 20.7448 54.4162 20.2819C54.4162 19.8189 54.0416 19.4443 53.5787 19.4443H50.86C50.3971 19.4443 50.0225 19.8189 50.0225 20.2819C50.0225 20.7448 50.3971 21.1194 50.86 21.1194Z" fill="#1BA24E"/>
<path d="M58.4264 21.1194H61.1451C61.608 21.1194 61.9826 20.7448 61.9826 20.2819C61.9826 19.8189 61.608 19.4443 61.1451 19.4443H58.4264C57.9635 19.4443 57.5889 19.8189 57.5889 20.2819C57.5889 20.7448 57.9635 21.1194 58.4264 21.1194Z" fill="#1BA24E"/>
</svg>
