<svg width="13" height="19" viewBox="0 0 13 19" fill="none" xmlns="http://www.w3.org/2000/svg">
<path fill-rule="evenodd" clip-rule="evenodd" d="M6.01465 13.5351L9.56054 9.98925C11.5189 8.03091 11.5189 4.85581 9.56054 2.89747C7.6022 0.939125 4.4271 0.939125 2.46876 2.89747C0.510414 4.85581 0.510414 8.03091 2.46876 9.98925L6.01465 13.5351ZM1.76165 2.19036C-0.587217 4.53923 -0.587217 8.34749 1.76165 10.6964L5.30754 14.2422L6.01465 14.9494L6.72176 14.2422L10.2676 10.6964C12.6165 8.34749 12.6165 4.53923 10.2676 2.19036C7.91878 -0.158506 4.11052 -0.158505 1.76165 2.19036ZM7.70356 13.9794C7.61366 13.9604 7.53256 14.0357 7.53256 14.1276C7.53256 14.5365 7.74688 14.9998 8.13437 15.1304C8.36311 15.2075 8.57034 15.2957 8.75248 15.3918C9.44359 15.7565 9.54047 16.088 9.54047 16.1909C9.54047 16.2938 9.44359 16.6252 8.75248 16.99C8.10685 17.3307 7.14581 17.5717 6.02948 17.5717C4.91316 17.5717 3.95212 17.3307 3.30649 16.99C2.61538 16.6252 2.5185 16.2938 2.5185 16.1909C2.5185 16.088 2.61538 15.7565 3.30649 15.3918C3.4883 15.2958 3.69511 15.2078 3.92336 15.1308C4.31092 15.0001 4.52523 14.5366 4.52523 14.1276C4.52523 14.0358 4.44422 13.9607 4.35443 13.9796C2.69248 14.3306 1.5185 15.1884 1.5185 16.1909C1.5185 17.5058 3.53814 18.5717 6.02948 18.5717C8.52083 18.5717 10.5405 17.5058 10.5405 16.1909C10.5405 15.1882 9.36603 14.3303 7.70356 13.9794ZM7 6C7 5.44772 6.55228 5 6 5C5.44772 5 5 5.44772 5 6C5 6.55228 5.44772 7 6 7C6.55228 7 7 6.55228 7 6ZM8 6C8 4.89543 7.10457 4 6 4C4.89543 4 4 4.89543 4 6C4 7.10457 4.89543 8 6 8C7.10457 8 8 7.10457 8 6Z" fill="#3A3541"/>
</svg>
