<svg width="18" height="19" viewBox="0 0 18 19" fill="none" xmlns="http://www.w3.org/2000/svg">
<path d="M15.75 14C15.3322 14 14.9415 14.1147 14.6055 14.3135L12.0285 11.1493C12.4717 10.7382 12.75 10.151 12.75 9.5C12.75 8.849 12.471 8.2595 12.0255 7.84775L14.5815 4.67225C14.922 4.88 15.3218 5 15.7493 5C16.9897 5 17.9993 3.9905 17.9993 2.75C17.9993 1.5095 16.9897 0.5 15.7493 0.5C14.7713 0.5 13.938 1.127 13.6283 2H4.371C4.06125 1.127 3.228 0.5 2.25 0.5C1.0095 0.5 0 1.5095 0 2.75C0 3.728 0.627 4.56125 1.5 4.871V14.129C0.627 14.4388 0 15.272 0 16.25C0 17.4905 1.0095 18.5 2.25 18.5C3.228 18.5 4.06125 17.873 4.371 17H13.629C13.9388 17.873 14.772 18.5 15.75 18.5C16.9905 18.5 18 17.4905 18 16.25C18 15.0095 16.9905 14 15.75 14ZM12 9.5C12 10.3272 11.3272 11 10.5 11C9.67275 11 9 10.3272 9 9.5C9 8.67275 9.67275 8 10.5 8C11.3272 8 12 8.67275 12 9.5ZM15.75 1.25C16.5772 1.25 17.25 1.92275 17.25 2.75C17.25 3.57725 16.5772 4.25 15.75 4.25C14.9228 4.25 14.25 3.57725 14.25 2.75C14.25 1.92275 14.9228 1.25 15.75 1.25ZM0.75 2.75C0.75 1.92275 1.42275 1.25 2.25 1.25C3.07725 1.25 3.75 1.92275 3.75 2.75C3.75 3.57725 3.07725 4.25 2.25 4.25C1.42275 4.25 0.75 3.57725 0.75 2.75ZM2.25 17.75C1.42275 17.75 0.75 17.0772 0.75 16.25C0.75 15.4228 1.42275 14.75 2.25 14.75C3.07725 14.75 3.75 15.4228 3.75 16.25C3.75 17.0772 3.07725 17.75 2.25 17.75ZM4.5 16.25C4.5 15.0095 3.4905 14 2.25 14V5C3.4905 5 4.5 3.9905 4.5 2.75H13.5C13.5 3.293 13.6935 3.79175 14.0145 4.181L11.394 7.436C11.1195 7.31675 10.8172 7.25 10.4992 7.25C9.25875 7.25 8.24925 8.2595 8.24925 9.5C8.24925 10.7405 9.25875 11.75 10.4992 11.75C10.818 11.75 11.1217 11.6833 11.397 11.5625L14.0325 14.798C13.7002 15.1902 13.5 15.6965 13.5 16.2493L4.5 16.25ZM15.75 17.75C14.9228 17.75 14.25 17.0772 14.25 16.25C14.25 15.4228 14.9228 14.75 15.75 14.75C16.5772 14.75 17.25 15.4228 17.25 16.25C17.25 17.0772 16.5772 17.75 15.75 17.75Z" fill="#3A3541"/>
</svg>
